<?xml version="1.0" standalone="no"?>
<!DOCTYPE svg PUBLIC "-//W3C//DTD SVG 20010904//EN"
 "http://www.w3.org/TR/2001/REC-SVG-20010904/DTD/svg10.dtd">
<svg version="1.0" xmlns="http://www.w3.org/2000/svg"
 width="3000.000000pt" height="2000.000000pt" viewBox="0 0 3000.000000 2000.000000"
 preserveAspectRatio="xMidYMid meet">

<g transform="translate(0.000000,2000.000000) scale(0.100000,-0.100000)"
fill="#000000" stroke="none">
<path d="M0 10000 l0 -10000 15000 0 15000 0 0 8080 0 8080 -25 0 c-14 0 -25
5 -25 11 0 6 -9 9 -20 6 -11 -3 -18 -2 -15 2 2 5 -55 11 -128 15 -73 4 -160
11 -195 17 -53 8 -65 7 -79 -6 -8 -9 -23 -14 -32 -11 -9 2 -41 8 -71 11 -30 4
-92 13 -137 21 -46 7 -90 11 -99 7 -10 -4 -15 -2 -11 3 3 5 -3 10 -13 10 -10
0 -17 -3 -14 -7 2 -4 -6 -9 -19 -13 -12 -3 -23 -1 -25 4 -5 13 -35 13 -49 -1
-8 -8 -24 -7 -59 5 -56 19 -57 19 -48 5 4 -8 -1 -9 -16 -4 -13 4 -25 3 -29 -4
-11 -17 -80 -1 -86 20 -4 11 -11 17 -16 13 -5 -3 -39 -8 -75 -10 -50 -4 -71
-1 -91 11 -13 9 -31 14 -39 11 -17 -6 -58 25 -44 34 5 3 -11 7 -35 8 -25 1
-61 8 -81 17 -20 8 -45 15 -55 15 -11 0 -19 5 -19 11 0 6 -9 8 -20 4 -33 -10
-80 4 -80 25 0 21 -46 55 -55 40 -10 -15 -51 -12 -65 6 -18 20 -79 46 -93 37
-5 -3 -7 -2 -4 4 4 6 -15 21 -41 34 -26 14 -46 30 -44 37 1 7 -3 12 -9 12 -6
0 -27 14 -46 30 -18 17 -38 30 -43 30 -6 0 -10 6 -10 14 0 16 -72 32 -90 21
-7 -5 -11 0 -10 11 3 30 -1 60 -7 47 -2 -7 -9 -13 -14 -13 -6 0 -7 6 -3 13 5
9 4 9 -6 0 -10 -9 -22 -6 -54 14 -22 14 -44 31 -48 37 -5 8 -8 7 -8 -1 0 -7
-4 -13 -10 -13 -5 0 -10 6 -10 14 0 8 -11 13 -30 12 -16 -1 -30 -3 -30 -6 0
-3 18 -15 40 -26 27 -15 41 -18 44 -10 3 6 3 1 0 -11 -4 -19 -2 -22 13 -17 14
5 15 4 4 -4 -17 -12 -55 3 -46 17 6 10 -23 23 -35 16 -12 -8 -43 33 -37 50 7
18 -4 20 -21 3 -9 -9 -13 -7 -18 6 -5 12 -10 14 -19 6 -9 -7 -15 -7 -19 -1 -4
5 1 14 10 19 14 8 11 11 -17 17 -19 4 -40 12 -46 17 -10 8 -13 5 -13 -10 0
-42 -74 -58 -84 -19 -7 30 3 67 17 61 7 -2 18 0 26 5 12 8 12 11 0 25 -35 38
-40 46 -29 46 6 0 8 5 5 10 -5 8 -11 7 -21 -1 -12 -9 -13 -9 -9 3 8 21 -39 70
-54 55 -11 -11 -16 0 -12 31 1 6 -5 12 -14 12 -8 0 -15 7 -15 15 0 8 -6 15
-12 16 -7 0 -26 2 -43 2 -23 2 -29 6 -27 20 2 11 -4 17 -16 17 -10 0 -48 32
-84 70 l-66 70 31 0 c52 0 61 12 36 44 -14 18 -27 25 -38 21 -9 -4 -22 -10
-30 -13 -10 -4 -13 -1 -8 11 5 14 -8 23 -25 16 -2 0 -27 22 -57 50 -30 28 -57
48 -60 43 -14 -21 -101 4 -101 28 0 10 -7 21 -16 24 -12 4 -14 1 -9 -14 4 -14
2 -20 -8 -20 -23 0 -27 11 -10 36 8 13 11 24 5 24 -6 0 -12 -4 -14 -9 -1 -5
-15 -13 -30 -16 -24 -6 -28 -4 -28 14 0 12 -5 21 -11 21 -7 0 -9 -11 -5 -30 7
-38 -11 -40 -43 -6 -13 14 -30 22 -38 19 -8 -3 -21 3 -29 15 -8 11 -22 21 -32
21 -63 2 -77 7 -95 39 -16 28 -17 32 -3 32 9 0 16 -5 16 -12 0 -6 3 -9 6 -6 8
9 -24 78 -36 78 -6 0 -8 -5 -4 -12 5 -7 2 -9 -9 -5 -9 3 -17 1 -19 -5 -3 -7
-14 -5 -31 7 -21 14 -27 24 -24 44 2 14 2 20 0 14 -6 -16 -16 -16 -31 -1 -17
17 -15 48 3 48 21 0 19 22 -4 42 -14 12 -21 13 -24 5 -2 -7 -8 -9 -12 -5 -4 4
-2 14 5 23 7 9 8 15 2 15 -6 0 -12 -5 -14 -12 -3 -7 -10 -8 -17 -3 -11 6 -10
10 3 17 23 13 20 23 -8 23 -13 0 -24 -4 -23 -10 3 -18 -28 -11 -31 8 -2 11 3
17 13 17 15 0 15 2 4 16 -10 13 -10 17 1 24 8 5 18 6 22 4 4 -3 8 4 8 14 0 11
7 23 16 26 21 8 12 19 -19 22 -12 1 -24 3 -26 3 -2 1 2 8 9 16 10 12 10 15 -4
15 -22 0 -20 8 6 31 13 10 16 17 8 14 -10 -4 -19 6 -28 27 -7 18 -17 40 -21
48 -5 9 -12 30 -16 48 -3 18 -11 32 -16 32 -12 0 -12 37 1 45 11 7 2 35 -11
35 -5 0 -9 -8 -10 -17 0 -14 -3 -12 -10 5 -6 17 -5 28 6 39 13 12 13 18 3 30
-9 12 -9 16 3 24 10 6 11 9 1 9 -8 0 -10 5 -5 13 8 12 9 17 12 37 0 6 9 10 19
10 15 1 14 3 -5 19 l-22 19 20 18 c19 17 19 19 2 25 -10 4 -12 8 -5 8 16 1 15
48 -2 58 -19 11 -15 57 7 65 21 9 22 34 1 55 -13 13 -13 17 -2 24 10 7 10 9 0
9 -9 0 -11 12 -6 43 4 28 3 38 -4 28 -8 -11 -11 -9 -17 9 -5 15 -2 25 6 31 12
7 11 9 -1 9 -12 0 -13 2 -1 9 10 7 11 15 3 37 -9 26 -11 26 -11 7 -1 -27 -18
-31 -23 -6 -2 10 5 26 14 35 21 21 23 38 5 38 -14 0 -16 34 -4 46 4 4 2 13 -4
20 -7 9 -7 19 0 32 8 15 6 23 -9 37 -21 19 -27 45 -11 45 6 0 17 -10 25 -22 9
-12 16 -17 16 -11 0 27 -14 43 -36 43 -21 0 -24 4 -24 40 0 22 4 40 9 40 14 0
18 31 11 104 -4 48 -2 70 6 73 6 2 14 18 18 34 4 20 10 28 17 23 9 -5 11 10 6
59 -5 53 -3 68 10 79 15 12 16 10 10 -17 -7 -39 3 -58 21 -39 8 8 9 14 2 14
-6 0 -10 28 -8 75 1 55 5 75 15 75 9 0 13 15 13 51 0 31 6 56 15 65 21 21 21
124 1 124 -10 0 -16 -14 -19 -42 l-4 -43 -1 43 -2 42 -13025 0 -13025 0 0
-10000z m25954 9819 c26 -38 -10 -71 -58 -53 -21 8 -20 33 1 56 21 24 38 23
57 -3z m-409 -54 c0 -30 -39 -27 -43 3 -3 20 0 23 20 20 15 -2 23 -10 23 -23z
m445 -201 c0 -8 -4 -12 -10 -9 -5 3 -10 10 -10 16 0 5 5 9 10 9 6 0 10 -7 10
-16z m-620 -144 c0 -13 -7 -20 -20 -20 -13 0 -20 7 -20 20 0 13 7 20 20 20 13
0 20 -7 20 -20z m-169 -253 c-13 -13 -26 -3 -16 12 3 6 11 8 17 5 6 -4 6 -10
-1 -17z m690 -123 c11 -14 10 -18 -6 -30 -16 -12 -21 -12 -33 0 -17 17 -9 46
11 46 8 0 21 -7 28 -16z m-871 -224 c0 -5 -4 -10 -10 -10 -5 0 -10 5 -10 10 0
6 5 10 10 10 6 0 10 -4 10 -10z m-330 -276 c0 -17 -22 -14 -28 4 -2 7 3 12 12
12 9 0 16 -7 16 -16z m1279 -360 c3 -16 1 -17 -13 -5 -19 16 -21 34 -3 29 6
-3 14 -13 16 -24z m-309 -395 c0 -12 -29 -24 -37 -16 -3 4 -3 13 0 21 6 16 37
11 37 -5z m-720 -9 c0 -5 -2 -10 -4 -10 -3 0 -8 5 -11 10 -3 6 -1 10 4 10 6 0
11 -4 11 -10z m-496 -181 c-3 -5 -10 -7 -15 -3 -5 3 -7 10 -3 15 3 5 10 7 15
3 5 -3 7 -10 3 -15z m-924 1 c0 -5 -4 -10 -10 -10 -5 0 -10 5 -10 10 0 6 5 10
10 10 6 0 10 -4 10 -10z m1010 -80 c0 -5 -5 -10 -11 -10 -5 0 -7 5 -4 10 3 6
8 10 11 10 2 0 4 -4 4 -10z m860 -156 c0 -16 -16 -19 -25 -4 -8 13 4 32 16 25
5 -4 9 -13 9 -21z m1430 2 c0 -3 -4 -8 -10 -11 -5 -3 -10 -1 -10 4 0 6 5 11
10 11 6 0 10 -2 10 -4z m45 -46 c3 -5 1 -10 -4 -10 -6 0 -11 5 -11 10 0 6 2
10 4 10 3 0 8 -4 11 -10z m95 1 c0 -5 -6 -14 -14 -20 -12 -10 -14 -9 -11 6 2
10 4 19 4 21 2 6 21 1 21 -7z m-47 -8 c-7 -2 -19 -2 -25 0 -7 3 -2 5 12 5 14
0 19 -2 13 -5z m77 -13 c0 -5 -4 -10 -10 -10 -5 0 -10 5 -10 10 0 6 5 10 10
10 6 0 10 -4 10 -10z m-4030 -310 c0 -5 -4 -10 -10 -10 -5 0 -10 5 -10 10 0 6
5 10 10 10 6 0 10 -4 10 -10z m3928 -57 c4 -28 -32 -50 -54 -32 -15 12 -19 41
-7 53 16 15 58 1 61 -21z m-2254 -94 c-3 -5 -10 -7 -15 -3 -5 3 -7 10 -3 15 3
5 10 7 15 3 5 -3 7 -10 3 -15z m966 -34 c0 -8 -4 -15 -10 -15 -5 0 -10 7 -10
15 0 8 5 15 10 15 6 0 10 -7 10 -15z m960 -360 c0 -8 -4 -15 -9 -15 -13 0 -22
16 -14 24 11 11 23 6 23 -9z m1655 -35 c4 -6 11 -8 16 -5 5 4 9 1 9 -5 0 -7
-7 -9 -16 -6 -9 3 -20 6 -25 6 -5 0 -9 5 -9 10 0 13 17 13 25 0z m-4185 -70
c0 -5 -4 -10 -10 -10 -5 0 -10 5 -10 10 0 6 5 10 10 10 6 0 10 -4 10 -10z
m4909 -186 c10 -9 -16 -59 -32 -62 -21 -4 -47 15 -47 34 0 23 31 45 54 38 11
-4 23 -8 25 -10z m321 -194 c0 -24 -26 -38 -42 -22 -16 16 -2 42 22 42 13 0
20 -7 20 -20z m-1960 -90 c0 -5 -4 -10 -10 -10 -5 0 -10 5 -10 10 0 6 5 10 10
10 6 0 10 -4 10 -10z m1520 -201 c0 -25 -33 -22 -38 4 -2 12 3 17 17 17 15 0
21 -6 21 -21z m-7010 -133 c0 -3 -4 -8 -10 -11 -5 -3 -10 -1 -10 4 0 6 5 11
10 11 6 0 10 -2 10 -4z m7618 -14 c2 -7 -3 -12 -12 -12 -9 0 -16 7 -16 16 0
17 22 14 28 -4z m-3968 -156 c0 -3 -4 -8 -10 -11 -5 -3 -10 -1 -10 4 0 6 5 11
10 11 6 0 10 -2 10 -4z m3420 -26 c0 -11 -7 -20 -15 -20 -8 0 -15 9 -15 20 0
11 7 20 15 20 8 0 15 -9 15 -20z m-2640 -6 c0 -8 -5 -12 -10 -9 -6 4 -8 11 -5
16 9 14 15 11 15 -7z m1720 -179 c0 -8 -7 -15 -15 -15 -8 0 -15 7 -15 15 0 8
7 15 15 15 8 0 15 -7 15 -15z m-12130 -145 c0 -5 -5 -10 -11 -10 -5 0 -7 5 -4
10 3 6 8 10 11 10 2 0 4 -4 4 -10z m12420 -40 c0 -5 -7 -10 -15 -10 -8 0 -15
5 -15 10 0 6 7 10 15 10 8 0 15 -4 15 -10z m410 -520 c0 -5 -4 -10 -10 -10 -5
0 -10 5 -10 10 0 6 5 10 10 10 6 0 10 -4 10 -10z m1020 -70 c0 -5 -4 -10 -10
-10 -5 0 -10 5 -10 10 0 6 5 10 10 10 6 0 10 -4 10 -10z m-18440 -870 c0 -5
-4 -10 -10 -10 -5 0 -10 5 -10 10 0 6 5 10 10 10 6 0 10 -4 10 -10z m-4300
-44 c0 -3 -4 -8 -10 -11 -5 -3 -10 -1 -10 4 0 6 5 11 10 11 6 0 10 -2 10 -4z
m21775 -626 c3 -5 1 -10 -4 -10 -6 0 -11 5 -11 10 0 6 2 10 4 10 3 0 8 -4 11
-10z m-12495 -194 c0 -3 -4 -8 -10 -11 -5 -3 -10 -1 -10 4 0 6 5 11 10 11 6 0
10 -2 10 -4z m-4375 -926 c3 -5 1 -10 -4 -10 -6 0 -11 5 -11 10 0 6 2 10 4 10
3 0 8 -4 11 -10z m-4995 -1184 c0 -3 -4 -8 -10 -11 -5 -3 -10 -1 -10 4 0 6 5
11 10 11 6 0 10 -2 10 -4z m-83 -162 c510 -147 1056 -397 1533 -699 874 -555
1649 -1395 2117 -2294 36 -69 83 -159 105 -200 78 -151 186 -414 268 -658 50
-149 54 -175 27 -179 -10 -1 -15 2 -11 7 3 5 -1 9 -8 9 -18 0 -96 74 -127 120
-15 21 -41 55 -59 76 -18 22 -46 59 -63 84 -229 340 -245 365 -276 400 -13 13
-30 40 -39 59 -9 19 -33 52 -52 73 -19 21 -42 48 -50 60 -9 13 -18 25 -21 28
-15 13 -131 177 -131 185 0 2 -24 28 -53 57 -29 29 -66 71 -82 93 -17 22 -80
91 -141 153 -62 61 -109 112 -107 112 3 0 -7 10 -23 22 -55 41 -106 93 -139
143 -34 50 -92 114 -175 192 -25 24 -51 48 -58 55 -68 66 -81 78 -88 78 -10 0
-113 79 -140 108 -12 12 -26 22 -33 22 -6 0 -46 32 -88 71 -42 39 -94 82 -117
96 -22 14 -54 39 -71 54 -16 16 -33 29 -36 29 -3 0 -23 16 -45 36 -21 19 -59
49 -84 66 -25 17 -55 43 -68 57 -13 14 -20 20 -16 12 4 -8 -9 -2 -29 13 -20
16 -34 32 -31 37 3 5 -2 9 -10 9 -9 0 -16 5 -16 10 0 6 -10 15 -23 21 -12 5
-38 32 -57 59 -19 27 -38 49 -42 50 -5 0 -8 5 -8 12 0 7 -12 23 -27 36 -37 32
-193 182 -193 186 0 8 -76 86 -83 86 -4 0 -36 29 -70 64 -56 57 -150 135 -217
178 -14 9 -70 49 -125 88 -55 39 -111 76 -125 83 -14 7 -59 34 -100 61 -41 27
-140 89 -220 136 -171 103 -395 249 -428 279 -12 12 -27 21 -31 21 -5 0 -11 7
-15 15 -3 8 0 15 6 15 7 0 3 7 -8 16 -10 8 -13 12 -5 8 11 -5 13 -3 8 10 -4
10 -3 15 3 11 6 -3 10 -1 10 4 0 17 20 14 187 -35z m9743 -274 c0 -5 -2 -10
-4 -10 -3 0 -8 5 -11 10 -3 6 -1 10 4 10 6 0 11 -4 11 -10z m5190 -360 c0 -5
-4 -10 -10 -10 -5 0 -10 5 -10 10 0 6 5 10 10 10 6 0 10 -4 10 -10z m-840 -80
c0 -5 -4 -10 -10 -10 -5 0 -10 5 -10 10 0 6 5 10 10 10 6 0 10 -4 10 -10z
m-6985 -360 c3 -5 1 -10 -4 -10 -6 0 -11 5 -11 10 0 6 2 10 4 10 3 0 8 -4 11
-10z m3215 -1095 c0 -8 -4 -15 -9 -15 -13 0 -22 16 -14 24 11 11 23 6 23 -9z
m-970 -183 c0 -13 -12 -22 -22 -16 -10 6 -1 24 13 24 5 0 9 -4 9 -8z m-5420
-182 c0 -5 -2 -10 -4 -10 -3 0 -8 5 -11 10 -3 6 -1 10 4 10 6 0 11 -4 11 -10z
m710 -785 c0 -8 -4 -15 -9 -15 -13 0 -22 16 -14 24 11 11 23 6 23 -9z m2220
-71 c0 -8 -4 -12 -10 -9 -5 3 -10 10 -10 16 0 5 5 9 10 9 6 0 10 -7 10 -16z
m300 -294 c0 -5 -4 -10 -10 -10 -5 0 -10 5 -10 10 0 6 5 10 10 10 6 0 10 -4
10 -10z m2190 -200 c0 -5 -5 -10 -11 -10 -5 0 -7 5 -4 10 3 6 8 10 11 10 2 0
4 -4 4 -10z m-2720 -1230 c0 -5 -4 -10 -10 -10 -5 0 -10 5 -10 10 0 6 5 10 10
10 6 0 10 -4 10 -10z m1000 -190 c0 -5 -4 -10 -10 -10 -5 0 -10 5 -10 10 0 6
5 10 10 10 6 0 10 -4 10 -10z m-835 -570 c-3 -5 -10 -10 -16 -10 -5 0 -9 5 -9
10 0 6 7 10 16 10 8 0 12 -4 9 -10z m-2315 -154 c0 -3 -4 -8 -10 -11 -5 -3
-10 -1 -10 4 0 6 5 11 10 11 6 0 10 -2 10 -4z m990 -596 c0 -5 -2 -10 -4 -10
-3 0 -8 5 -11 10 -3 6 -1 10 4 10 6 0 11 -4 11 -10z m15920 -3454 c0 -3 -4 -8
-10 -11 -5 -3 -10 -1 -10 4 0 6 5 11 10 11 6 0 10 -2 10 -4z"/>
<path d="M25996 19443 c-6 -14 -5 -15 5 -6 7 7 10 15 7 18 -3 3 -9 -2 -12 -12z"/>
<path d="M25971 19224 c0 -11 3 -14 6 -6 3 7 2 16 -1 19 -3 4 -6 -2 -5 -13z"/>
<path d="M26430 17581 c0 -5 7 -12 16 -15 14 -5 15 -4 4 9 -14 17 -20 19 -20
6z"/>
<path d="M27025 17230 c3 -5 11 -10 16 -10 6 0 7 5 4 10 -3 6 -11 10 -16 10
-6 0 -7 -4 -4 -10z"/>
<path d="M28650 16270 c8 -5 24 -9 35 -9 l20 0 -20 9 c-11 5 -27 9 -35 9 -13
1 -13 0 0 -9z"/>
</g>
</svg>
